<svg xmlns="http://www.w3.org/2000/svg" viewBox="0 0 1024 1024" fill="currentColor">
  <g transform="translate(0,1024) scale(0.1,-0.1)">
    <path d="M3985 8440 l-1480 -5 -52 -23 c-72 -33 -154 -121 -182 -197 -31 -83
-27 -196 11 -277 41 -88 128 -162 223 -189 16 -5 287 -9 600 -9 316 0 604 -4
647 -10 131 -16 226 -81 285 -192 25 -48 28 -62 28 -158 0 -96 -3 -110 -28
-158 -35 -67 -92 -124 -159 -159 l-53 -28 -395 -6 c-217 -4 -686 -7 -1042 -8
-629 -1 -649 -2 -703 -22 -73 -27 -156 -104 -192 -177 -25 -50 -28 -68 -28
-152 0 -84 3 -102 28 -152 36 -73 119 -150 192 -177 54 -20 74 -21 633 -21
349 0 602 -4 641 -10 119 -20 216 -91 269 -200 24 -48 27 -67 27 -150 0 -84
-3 -102 -28 -152 -36 -73 -119 -150 -192 -177 -55 -21 -70 -21 -928 -21 -552
0 -895 -4 -936 -10 -35 -6 -82 -20 -104 -31 -62 -32 -134 -106 -164 -168 -23
-48 -27 -69 -28 -146 0 -77 4 -98 26 -146 36 -76 86 -129 161 -170 l63 -34
1120 -5 1120 -5 67 -32 c79 -37 142 -98 177 -173 22 -47 26 -69 26 -150 0 -85
-3 -101 -29 -153 -35 -68 -108 -140 -174 -170 -45 -21 -62 -22 -477 -27 -479
-7 -475 -6 -570 -78 -52 -39 -108 -121 -125 -182 -17 -60 -12 -164 11 -225 27
-73 104 -156 177 -192 l57 -28 600 -5 600 -5 119 -175 c293 -432 654 -914
1030 -1375 274 -336 701 -830 717 -830 24 0 536 601 880 1032 1090 1367 1754
2518 1879 3258 28 168 33 275 20 450 -36 497 -186 948 -448 1345 -116 177
-190 268 -336 419 -526 539 -1191 825 -1961 843 -77 2 -806 1 -1620 -2z m1820
-1071 c554 -69 1053 -427 1311 -941 342 -681 191 -1513 -369 -2034 l-82 -76
-6 54 c-4 29 -10 244 -13 478 -4 234 -11 650 -16 925 -10 479 -11 500 -30 519
-40 40 -148 11 -203 -53 -34 -41 -81 -166 -122 -325 -61 -242 -68 -308 -73
-763 l-4 -413 80 0 c65 0 84 -4 106 -21 23 -18 26 -28 26 -78 0 -69 -29 -491
-34 -507 -4 -12 -178 -88 -271 -119 -68 -23 -254 -65 -287 -65 -23 0 -28 5
-32 33 -5 31 -20 260 -52 803 l-16 271 22 49 c15 33 39 62 73 89 63 50 107
112 133 191 17 52 19 87 18 279 -1 151 -6 258 -18 340 -36 253 -66 339 -104
301 -13 -12 -13 -56 -2 -313 6 -164 12 -318 13 -342 2 -50 -20 -74 -50 -55
-16 10 -20 48 -33 351 -17 371 -21 394 -70 363 -13 -8 -16 -65 -20 -377 l-5
-368 -30 0 -30 0 -3 367 c-2 346 -3 368 -21 377 -13 7 -23 7 -35 -2 -14 -10
-18 -59 -31 -342 -9 -181 -18 -340 -21 -353 -4 -18 -10 -23 -32 -20 -26 3 -27
5 -30 73 -1 39 4 194 11 345 8 151 12 280 10 287 -7 18 -29 23 -47 10 -53 -40
-118 -664 -87 -842 21 -122 88 -237 165 -285 21 -12 44 -40 57 -68 l23 -46
-18 -321 c-34 -580 -51 -810 -61 -810 -167 3 -435 62 -588 129 l-54 24 -7 104
c-3 57 -15 247 -26 423 -31 498 -30 503 50 530 234 78 334 365 246 705 -56
219 -173 392 -302 446 -58 25 -140 21 -200 -9 -283 -145 -419 -747 -226 -1002
47 -63 109 -110 174 -132 76 -27 84 -45 80 -183 -3 -127 -40 -732 -45 -737 -5
-4 -172 130 -226 181 -24 22 -77 82 -119 131 -440 523 -531 1257 -232 1868 96
197 205 344 378 507 373 355 875 515 1407 449z"/>
  </g>
</svg>
